<?xml version="1.0" standalone="no"?>
<!DOCTYPE svg PUBLIC "-//W3C//DTD SVG 20010904//EN"
 "http://www.w3.org/TR/2001/REC-SVG-20010904/DTD/svg10.dtd">
<svg version="1.0" xmlns="http://www.w3.org/2000/svg"
 width="444.000000pt" height="444.000000pt" viewBox="0 0 444.000000 444.000000"
 preserveAspectRatio="xMidYMid meet">
<metadata>
Created by potrace 1.11, written by Peter Selinger 2001-2013
</metadata>
<g transform="translate(0.000000,444.000000) scale(0.100000,-0.100000)"
fill="#000000" stroke="none">
<path d="M2087 4204 c-1 -1 -38 -4 -82 -8 -229 -19 -464 -85 -677 -191 -499
-248 -869 -696 -1012 -1227 -14 -51 -28 -108 -31 -127 -3 -19 -7 -37 -9 -40
-2 -3 -7 -35 -11 -71 -4 -36 -9 -74 -11 -85 -7 -31 -6 -345 1 -390 22 -149 29
-191 52 -280 81 -328 254 -633 498 -880 301 -305 648 -483 1090 -560 138 -24
456 -25 570 -1 11 2 40 7 65 11 25 3 96 20 157 36 101 26 137 38 248 82 73 29
257 129 335 182 360 245 626 596 759 1002 42 127 43 129 66 258 39 209 41 466
5 684 -6 36 -13 67 -15 70 -1 3 -6 24 -9 46 -13 79 -99 312 -160 430 -126 244
-298 459 -491 614 -38 31 -72 59 -75 62 -17 22 -213 140 -305 184 -219 107
-403 160 -655 191 -48 6 -297 13 -303 8z"/>
</g>
</svg>
